<svg xmlns="http://www.w3.org/2000/svg" version="1.1" xmlns:xlink="http://www.w3.org/1999/xlink" xmlns:svgjs="http://svgjs.dev/svgjs" width="1000" height="1000" viewBox="0 0 1000 1000"><rect width="1000" height="1000" fill="#ffffff"></rect><g transform="matrix(0.7,0,0,0.7,150.32587163006065,246.80518218623484)"><svg viewBox="0 0 341 247" data-background-color="#0c1d36" preserveAspectRatio="xMidYMid meet" height="724" width="1000" xmlns="http://www.w3.org/2000/svg" xmlns:xlink="http://www.w3.org/1999/xlink"><g id="tight-bounds" transform="matrix(1,0,0,1,-0.15874603692955702,-0.09999999999999432)"><svg viewBox="0 0 341.3174920738591 247.2" height="247.2" width="341.3174920738591"><g><svg viewBox="0 0 531.282337310688 384.7824879563524" height="247.2" width="341.3174920738591"><g transform="matrix(1,0,0,1,0,53.179055860827305)"><svg viewBox="0 0 395.52 278.4243762346978" height="278.4243762346978" width="395.52"><g id="textblocktransform"><svg viewBox="0 0 395.52 278.4243762346978" height="278.4243762346978" width="395.52" id="textblock"><g><svg viewBox="0 0 395.52 167.60160000000002" height="167.60160000000002" width="395.52"><g transform="matrix(1,0,0,1,0,0)"><svg width="395.52" viewBox="3.3499999046325684 -33.70000076293945 79.98999786376953 33.900001525878906" height="167.60160000000002" data-palette-color="#e8b814"><path d="M5.2-32.1Q6.95-31.95 8.25-31.18 9.55-30.4 9.55-28.85L9.55-28.85Q9.55-27.7 8.47-27.03 7.4-26.35 5.9-26.35L5.9-26.35Q4.45-26.35 3.9-27.1 3.35-27.85 3.35-28.65L3.35-28.65Q3.35-30.15 3.68-31.15 4-32.15 5.2-32.1L5.2-32.1ZM9.2-18.95L9.2-9.95 9.2-8.5Q9.2-6.55 9.33-4.83 9.45-3.1 9.65-1.35L9.65-1.35Q9.6-0.85 8.9-0.33 8.2 0.2 7.65 0.2L7.65 0.2Q6.7 0.2 5.73-0.18 4.75-0.55 4.55-1.1L4.55-1.1Q4.25-2.7 4.25-3.95L4.25-3.95Q4.25-8.05 4-13.15L4-13.15Q3.8-17.65 3.8-19.45L3.8-19.45Q3.8-20.35 4.7-21 5.6-21.65 6.6-21.65L6.6-21.65Q8.05-21.65 8.63-21 9.2-20.35 9.2-18.95L9.2-18.95ZM38.25-3.85Q38.5-3.75 39.05-3.6 39.6-3.45 39.85-3.3 40.1-3.15 40.1-2.85L40.1-2.85Q40.15-1.65 39.22-0.88 38.3-0.1 37.05-0.1L37.05-0.1Q35.1-0.1 34-1.15 32.9-2.2 32.4-4.35L32.4-4.35Q32.2-5.2 32.2-6.7L32.2-6.7Q32.2-7.55 32.3-9.45L32.3-9.45Q32.4-11.45 32.4-12.65L32.4-12.65Q32.4-14.4 31.42-15.73 30.45-17.05 28.7-17.05L28.7-17.05Q27.65-17.05 26.5-16.43 25.35-15.8 24.9-14.9L24.9-14.9Q24.15-13.45 23.85-11.75L23.85-11.75Q23.3-8.75 23.3-5.5L23.3-5.5Q23.3-3.95 23.35-3.1L23.35-3.1Q23.35-2.9 23.37-2.33 23.4-1.75 23.27-1.28 23.15-0.8 22.85-0.4L22.85-0.4Q22.6-0.15 22.07 0.03 21.55 0.2 21.1 0.2L21.1 0.2Q20.4 0.2 19.35-0.4 18.3-1 18.15-1.75L18.15-1.75 18.1-2.6Q18.1-3.05 18.2-3.65L18.2-3.65Q18.8-7.15 18.8-9.75L18.8-9.75Q18.8-10.9 18.75-11.55L18.75-11.55 18.7-13.9Q18.7-15.1 18.1-16.23 17.5-17.35 16.7-17.35L16.7-17.35Q16.45-17.35 16-17.18 15.55-17 15.25-17L15.25-17Q14.75-17 14.17-17.5 13.6-18 13.6-18.55L13.6-18.55Q13.6-19.6 14.3-20.25L14.3-20.25Q15.05-20.85 15.77-21.2 16.5-21.55 17.45-21.55L17.45-21.55Q18.25-21.55 18.75-21.4 19.25-21.25 20.1-20.75L20.1-20.75Q20.55-20.5 21.15-19.65 21.75-18.8 22.15-17.25L22.15-17.25Q23.45-19.65 25.37-20.63 27.3-21.6 30.3-21.6L30.3-21.6Q31.45-21.6 32.77-20.85 34.1-20.1 35.05-19.1L35.05-19.1Q35.95-18 36.55-16.38 37.15-14.75 37.15-13.45L37.15-13.45Q37.15-12.7 37.05-11L37.05-11Q36.9-9.65 36.9-8.15L36.9-8.15Q36.9-4.65 38.25-3.85L38.25-3.85ZM58.34-26.05Q57.65-26.05 57-26.4 56.34-26.75 56.09-27.45L56.09-27.45Q55.59-28.8 55.02-29.38 54.45-29.95 53.65-29.95L53.65-29.95Q53.15-29.95 52.72-29.2 52.3-28.45 52.09-26.85L52.09-26.85Q51.75-23.55 51.75-21.8L51.75-21.8Q52.5-21.65 53.84-21.65L53.84-21.65Q54.55-21.65 55.65-21.75L55.65-21.75 57-21.8Q57.9-21.8 58.4-21.45 58.9-21.1 58.9-20.3L58.9-20.3Q58.9-19.15 58.2-18.4 57.5-17.65 56.55-17.65L56.55-17.65Q52.95-17.65 51.7-17.3L51.7-17.3Q51.7-14.3 52-8.7L52-8.7Q52-7.85 52.09-6.25L52.09-6.25 52.3-2.4Q52.4-0.95 52.02-0.38 51.65 0.2 50.45 0.2L50.45 0.2Q48.25 0.2 47.59-2.45L47.59-2.45Q47.2-4.35 46.97-7.88 46.75-11.4 46.75-14.1L46.75-14.1Q46.75-15.5 46.9-17.35L46.9-17.35Q46.8-17.4 46.34-17.4L46.34-17.4Q45.9-17.4 45.7-17.35L45.7-17.35Q44.2-17.25 43.5-17.25L43.5-17.25Q43.05-17.25 42.59-17.9 42.15-18.55 42.15-19.4L42.15-19.4Q42.15-19.9 42.5-20.33 42.84-20.75 43.34-20.95L43.34-20.95Q44.09-21.35 45.5-21.35L45.5-21.35 47-21.35Q47-28.35 48.55-31.1L48.55-31.1Q50.05-33.7 53.5-33.7L53.5-33.7Q55.09-33.7 56.57-33.05 58.05-32.4 58.97-31.25 59.9-30.1 59.9-28.65L59.9-28.65Q59.9-27.1 59.5-26.58 59.09-26.05 58.34-26.05L58.34-26.05ZM82.44-16.05Q82.84-15.35 83.09-14.03 83.34-12.7 83.34-11.65L83.34-11.65Q83.34-9.7 82.49-6.1L82.49-6.1Q79.04 0.2 72.29 0.2L72.29 0.2Q69.79 0.2 67.19-1.45 64.59-3.1 63.59-5.25L63.59-5.25Q62.24-9.55 62.24-10.7L62.24-10.7Q62.24-12.7 63.12-14.95 63.99-17.2 65.34-18.85L65.34-18.85Q66.19-20 68.39-20.83 70.59-21.65 72.39-21.65L72.39-21.65Q75.89-21.65 78.34-20.33 80.79-19 82.44-16.05L82.44-16.05ZM78.09-8Q78.34-8.65 78.34-11.35L78.34-11.35Q78.34-12.8 77.82-14.2 77.29-15.6 76.29-16.6L76.29-16.6Q76.19-16.7 75.74-16.93 75.29-17.15 74.52-17.38 73.74-17.6 72.74-17.6L72.74-17.6Q69.94-17.6 68.64-15.35 67.34-13.1 67.34-10.25L67.34-10.25Q67.34-9.75 67.62-8.35 67.89-6.95 68.09-6.6L68.09-6.6Q68.24-6.25 68.87-5.63 69.49-5 70.42-4.53 71.34-4.05 72.34-4.05L72.34-4.05Q74.59-4.05 75.94-5.13 77.29-6.2 78.09-8L78.09-8Z" opacity="1" transform="matrix(1,0,0,1,0,0)" fill="#000000" class="undefined-text-0" data-fill-palette-color="primary" id="text-0"></path></svg></g></svg></g><g transform="matrix(1,0,0,1,0,207.16831532160003)"><svg viewBox="0 0 232.209792 71.25606091309771" height="71.25606091309771" width="232.209792"><g transform="matrix(1,0,0,1,0,0)"><svg width="232.209792" viewBox="0 -35.29999923706055 117.41999816894531 36.029998779296875" height="71.25606091309771" data-palette-color="#e8b814"><path d="M13.96-17.63Q13.87-15.14 13.77-12.62 13.67-10.11 13.67-7.62L13.67-7.62Q13.67-6.79 14.01-6.2 14.36-5.62 14.92-5.25 15.48-4.88 16.19-4.74 16.89-4.59 17.63-4.59L17.63-4.59Q18.55-4.59 19.46-4.74 20.36-4.88 21.24-5.13L21.24-5.13 20.46 0.1Q17.63 0.1 15.14-0.07 12.65-0.24 10.79-1.12 8.94-2 7.86-3.93 6.79-5.86 6.79-9.38L6.79-9.38Q6.79-11.43 6.91-13.5 7.03-15.58 7.23-17.63L7.23-17.63 0-17.58 0.34-22.36Q2.1-22.22 3.91-22.19 5.71-22.17 7.52-22.17L7.52-22.17Q7.62-23.58 7.67-24.93 7.71-26.27 7.71-27.69L7.71-27.69Q7.71-27.98 7.71-28.86 7.71-29.74 7.62-30.69 7.52-31.64 7.32-32.42 7.13-33.2 6.79-33.35L6.79-33.35 15.77-33.2Q15.58-33.2 15.48-32.91 15.38-32.62 15.28-32.47L15.28-32.47Q14.99-31.54 14.82-30.22 14.65-28.91 14.53-27.47 14.4-26.03 14.33-24.68 14.26-23.34 14.21-22.31L14.21-22.31Q15.87-22.41 17.58-22.49 19.29-22.56 20.95-22.95L20.95-22.95 20.95-17.68 13.96-17.63ZM39.55 0.73L39.55 0.73Q37.16 0.73 34.47 0.1 31.78-0.54 29.51-1.88 27.24-3.22 25.75-5.27 24.27-7.32 24.27-10.16L24.27-10.16Q24.27-13.62 25.63-16.36 27-19.09 29.29-20.97 31.59-22.85 34.62-23.85 37.64-24.85 40.96-24.85L40.96-24.85Q43.6-24.85 45.65-24 47.7-23.14 49.07-21.61 50.44-20.07 51.14-17.97 51.85-15.87 51.85-13.33L51.85-13.33Q51.85-10.89 51.12-8.64L51.12-8.64 30.76-8.64Q31.25-7.18 32.3-6.25 33.35-5.32 34.69-4.81 36.03-4.3 37.52-4.1 39.01-3.91 40.33-3.91L40.33-3.91Q41.16-3.91 42.55-4.03 43.94-4.15 45.41-4.42 46.87-4.69 48.17-5.08 49.46-5.47 50.1-6.05L50.1-6.05 52.49-1.86Q49.27-0.63 46.14 0.05 43.02 0.73 39.55 0.73ZM39.55-20.26L39.55-20.26Q38.08-20.26 36.64-19.68 35.2-19.09 34.03-18.14 32.86-17.19 31.98-15.89 31.1-14.6 30.71-13.23L30.71-13.23 44.68-13.23Q44.82-14.7 44.7-15.99 44.58-17.29 44.04-18.24 43.5-19.19 42.43-19.73 41.35-20.26 39.55-20.26ZM75.78-13.82Q76.41-14.5 77.05-15.43 77.68-16.36 77.68-17.29L77.68-17.29Q77.68-18.16 77.05-18.73 76.41-19.29 75.53-19.58 74.65-19.87 73.7-20 72.75-20.12 72.11-20.12L72.11-20.12Q70.11-20.12 68.35-19.41 66.6-18.7 65.28-17.46 63.96-16.21 63.2-14.5 62.45-12.79 62.45-10.74L62.45-10.74Q62.45-8.84 63.25-7.71 64.06-6.59 65.3-6.03 66.55-5.47 68.11-5.32 69.67-5.18 71.24-5.18L71.24-5.18Q73.63-5.18 76.22-5.57 78.8-5.96 81.1-6.64L81.1-6.64 82.42-2.29Q80.07-1.42 77.19-1 74.31-0.59 71.77-0.59L71.77-0.59Q70.26-0.59 68.48-0.76 66.69-0.93 64.89-1.34 63.08-1.76 61.4-2.44 59.71-3.13 58.39-4.2 57.08-5.27 56.29-6.76 55.51-8.25 55.51-10.21L55.51-10.21Q55.51-13.77 57.25-16.48 58.98-19.19 61.69-21.02 64.4-22.85 67.7-23.78 70.99-24.71 74.16-24.71L74.16-24.71Q75.92-24.71 77.68-24.44 79.44-24.17 80.85-23.44 82.27-22.71 83.15-21.39 84.03-20.07 84.03-17.97L84.03-17.97Q84.03-16.89 83.83-15.87 83.64-14.84 83.34-13.82L83.34-13.82 75.78-13.82ZM106.49-23.44L106.49-23.44Q108.64-23.44 110.54-22.83 112.44-22.22 113.88-21 115.32-19.78 116.15-18.02 116.98-16.26 116.98-13.96L116.98-13.96Q116.98-13.43 116.96-12.3 116.94-11.18 116.94-9.79 116.94-8.4 116.94-6.88 116.94-5.37 116.98-4.05 117.03-2.73 117.13-1.76 117.23-0.78 117.42-0.49L117.42-0.49 109.07-0.49Q109.81-2.59 110.25-5.03 110.69-7.47 110.69-9.72L110.69-9.72Q110.69-11.52 110.32-13.13 109.95-14.75 109.1-15.94 108.24-17.14 106.85-17.82 105.46-18.51 103.41-18.51L103.41-18.51Q101.26-18.51 99.28-17.43 97.31-16.36 95.94-14.75L95.94-14.75Q95.89-13.18 95.89-11.6 95.89-10.01 95.89-8.4L95.89-8.4Q95.89-8.15 95.89-7.42 95.89-6.69 95.89-5.71 95.89-4.74 95.94-3.66 95.99-2.59 96.04-1.66 96.09-0.73 96.18-0.07 96.28 0.59 96.43 0.73L96.43 0.73 87.79 0.73Q87.98 0.49 88.15-0.93 88.32-2.34 88.49-4.32 88.66-6.3 88.81-8.62 88.96-10.94 89.06-13.01 89.15-15.09 89.23-16.65 89.3-18.21 89.35-18.75L89.35-18.75Q89.49-22.56 89.49-26.46L89.49-26.46Q89.49-26.71 89.49-27.42 89.49-28.13 89.47-29.08 89.45-30.03 89.4-31.08 89.35-32.13 89.25-33.03 89.15-33.94 88.98-34.57 88.81-35.21 88.57-35.3L88.57-35.3 97.89-35.21Q97.65-35.21 97.5-34.81 97.36-34.42 97.31-34.28L97.31-34.28Q96.92-33.01 96.79-31.62 96.67-30.22 96.57-28.91L96.57-28.91Q96.38-26.81 96.28-24.73 96.18-22.66 96.09-20.56L96.09-20.56Q98.28-22.12 101.07-22.78 103.85-23.44 106.49-23.44Z" opacity="1" transform="matrix(1,0,0,1,0,0)" fill="#000000" class="undefined-text-1" data-fill-palette-color="secondary" id="text-1"></path></svg></g></svg></g></svg></g></svg></g><g transform="matrix(1,0,0,1,435.08671532159997,0)"><svg viewBox="0 0 96.1956219890881 384.7824879563524" height="384.7824879563524" width="96.1956219890881"><g><svg xmlns="http://www.w3.org/2000/svg" version="1.1" data-icon="info" data-container-transform="translate(48)" viewBox="48 0 32 128" x="0" y="0" height="384.7824879563524" width="96.1956219890881" class="icon-icon-0" data-fill-palette-color="accent" id="icon-0"><path d="M24 0c-4.418 0-8 3.582-8 8s3.582 8 8 8 8-3.582 8-8-3.582-8-8-8z m-10 24c-6.6 0-12 5.4-12 12v4h2v-4c0-2.2 1.8-4 4-4s4 1.9 4 4-12 73.4-12 80c0 6.6 5.4 12 12 12s12-5.4 12-12v-4h-2v4c0 2.2-1.8 4-4 4s-4-1.9-4-4 12-73.4 12-80c0-6.6-5.4-12-12-12z" transform="translate(48)" fill="#000000" data-fill-palette-color="accent"></path></svg></g></svg></g></svg></g><defs></defs></svg><rect width="341.3174920738591" height="247.2" fill="none" stroke="none" visibility="hidden"></rect></g></svg></g></svg>