<svg width="167" height="369" viewBox="0 0 167 369" fill="none" xmlns="http://www.w3.org/2000/svg">
<rect x="-0.30171" y="-0.167241" width="188.15" height="270.199" rx="13.4535" transform="matrix(-0.857167 0.515038 -0.0174522 -0.999848 166.031 270.669)" fill="url(#paint0_linear_156307_570)" stroke="url(#paint1_linear_156307_570)" stroke-width="0.689923"/>
<g filter="url(#filter0_b_156307_570)">
<path d="M72.2837 149.91L67.7065 167.51L63.7651 169.794L59.1705 157.508L62.5224 155.566L65.7337 164.991L68.9502 151.842L72.2837 149.91ZM78.5911 146.255L78.5999 161.198L75.4505 163.023L75.4417 148.08L78.5911 146.255ZM85.8663 144.957L85.8681 147.979L90.0857 145.536L90.0873 148.345L85.8697 150.789L85.8716 154.067L90.6418 151.303L90.6435 154.219L82.7239 158.808L82.7152 143.866L90.6348 139.277L90.6365 142.193L85.8663 144.957ZM112.312 126.716L108.951 143.611L105.138 145.82L103.07 137.182L100.939 148.254L97.1267 150.463L93.8397 137.42L97.2101 135.467L99.0766 145.266L101.372 133.055L104.835 131.048L107.051 140.645L108.924 128.679L112.312 126.716ZM74.8072 180.468L74.8159 195.411L71.6665 197.236L71.6613 188.274L68.7749 198.911L66.2333 200.384L63.3181 193.087L63.3233 202.07L60.174 203.895L60.1652 188.952L63.8856 186.796L67.5199 195.039L71.1052 182.613L74.8072 180.468ZM90.001 171.664L85.5314 184.262L85.5343 189.2L82.3849 191.025L82.382 186.086L77.9007 178.675L81.4737 176.605L83.9822 181.412L86.4649 173.713L90.001 171.664ZM66.7861 232.083L64.0938 228.001L63.3387 228.438L63.342 234.079L60.1926 235.904L60.1839 220.961L65.4697 217.898C66.4888 217.308 67.3546 217.012 68.067 217.011C68.7916 217.003 69.3322 217.257 69.6887 217.775C70.0452 218.278 70.2237 218.969 70.2242 219.849C70.2248 220.843 69.9797 221.872 69.489 222.937C69.0106 223.995 68.2988 224.961 67.3536 225.835L70.3407 230.024L66.7861 232.083ZM63.3372 225.863L65.2895 224.731C65.8666 224.397 66.2962 223.985 66.5784 223.495C66.8729 222.998 67.02 222.451 67.0196 221.855C67.0193 221.287 66.8717 220.926 66.5768 220.77C66.2942 220.607 65.8644 220.693 65.2873 221.028L63.3351 222.159L63.3372 225.863ZM77.1913 214.023L77.1931 217.046L81.4107 214.602L81.4123 217.412L77.1947 219.856L77.1966 223.134L81.9667 220.37L81.9684 223.286L74.0489 227.875L74.0402 212.932L81.9597 208.343L81.9614 211.259L77.1913 214.023ZM90.533 218.472C89.5875 219.02 88.7402 219.334 87.991 219.413C87.2418 219.492 86.6399 219.316 86.1852 218.884C85.7428 218.445 85.509 217.742 85.4839 216.778L88.8358 214.835C88.8853 215.36 89.0513 215.69 89.3339 215.824C89.6164 215.944 89.9849 215.873 90.4392 215.61C90.9057 215.339 91.274 215.005 91.544 214.607C91.814 214.196 91.9488 213.77 91.9486 213.33C91.9484 212.961 91.8377 212.72 91.6165 212.606C91.4077 212.486 91.1436 212.44 90.8242 212.469C90.5172 212.491 90.0751 212.57 89.4979 212.706C88.6628 212.891 87.9811 212.988 87.453 212.996C86.9249 213.004 86.4703 212.827 86.0893 212.466C85.7084 212.105 85.5176 211.456 85.5171 210.519C85.5162 209.129 85.9515 207.79 86.8228 206.505C87.6941 205.205 88.8296 204.15 90.2293 203.339C91.6536 202.513 92.8019 202.245 93.6741 202.535C94.5463 202.81 95.0135 203.633 95.0758 205.002L91.6685 206.976C91.6437 206.508 91.49 206.221 91.2074 206.115C90.9249 205.995 90.5626 206.063 90.1205 206.319C89.7399 206.539 89.433 206.838 89.1999 207.214C88.9667 207.576 88.8503 207.978 88.8505 208.417C88.8508 208.9 89.0475 209.162 89.4405 209.204C89.8336 209.246 90.4477 209.181 91.2828 209.01C92.1179 208.852 92.7934 208.773 93.3093 208.772C93.8374 208.764 94.292 208.934 94.6729 209.281C95.0539 209.628 95.2446 210.249 95.2452 211.143C95.2456 211.994 95.0558 212.878 94.6756 213.794C94.3076 214.702 93.7677 215.569 93.0558 216.393C92.3439 217.217 91.5029 217.91 90.533 218.472ZM102.113 196.665L102.118 205.606C102.119 206.5 102.31 207.078 102.69 207.34C103.071 207.601 103.63 207.519 104.367 207.092C105.104 206.665 105.668 206.097 106.061 205.387C106.453 204.676 106.65 203.874 106.649 202.98L106.644 194.04L109.793 192.215L109.798 201.134C109.799 202.468 109.554 203.739 109.064 204.946C108.573 206.152 107.91 207.232 107.076 208.184C106.253 209.129 105.333 209.897 104.314 210.487C103.294 211.078 102.38 211.381 101.569 211.396C100.771 211.39 100.138 211.062 99.6707 210.409C99.2036 209.743 98.9697 208.743 98.9689 207.409L98.9637 198.49L102.113 196.665ZM128.488 181.382L128.497 196.325L125.348 198.15L125.342 189.189L122.456 199.826L119.915 201.298L116.999 194.002L117.005 202.985L113.855 204.809L113.846 189.867L117.567 187.711L121.201 195.954L124.786 183.527L128.488 181.382ZM135.746 180.094L135.748 183.117L139.965 180.673L139.967 183.483L135.749 185.927L135.751 189.205L140.521 186.441L140.523 189.357L132.604 193.946L132.595 179.003L140.514 174.414L140.516 177.33L135.746 180.094Z" fill="white"/>
</g>
<defs>
<filter id="filter0_b_156307_570" x="31.1704" y="82.3956" width="137.353" height="182.223" filterUnits="userSpaceOnUse" color-interpolation-filters="sRGB">
<feFlood flood-opacity="0" result="BackgroundImageFix"/>
<feGaussianBlur in="BackgroundImageFix" stdDeviation="14"/>
<feComposite in2="SourceAlpha" operator="in" result="effect1_backgroundBlur_156307_570"/>
<feBlend mode="normal" in="SourceGraphic" in2="effect1_backgroundBlur_156307_570" result="shape"/>
</filter>
<linearGradient id="paint0_linear_156307_570" x1="0" y1="0" x2="161.146" y2="286.468" gradientUnits="userSpaceOnUse">
<stop stop-color="white" stop-opacity="0.4"/>
<stop offset="1" stop-color="white" stop-opacity="0.1"/>
</linearGradient>
<linearGradient id="paint1_linear_156307_570" x1="-1.28607e-06" y1="9.05352" x2="151.32" y2="285.113" gradientUnits="userSpaceOnUse">
<stop stop-color="white"/>
<stop offset="1" stop-color="white" stop-opacity="0.1"/>
</linearGradient>
</defs>
</svg>
